<svg width="22" height="22" viewBox="0 0 22 22" fill="none" xmlns="http://www.w3.org/2000/svg">
<g filter="url(#filter0_i_101_13)">
<path d="M17 1H5C2.79086 1 1 2.79086 1 5V17C1 19.2091 2.79086 21 5 21H17C19.2091 21 21 19.2091 21 17V5C21 2.79086 19.2091 1 17 1Z" fill="white"/>
<mask id="mask0_101_13" style="mask-type:luminance" maskUnits="userSpaceOnUse" x="4" y="4" width="14" height="14">
<path d="M18 4H4V18H18V4Z" fill="white"/>
</mask>
<g mask="url(#mask0_101_13)">
<path d="M14.938 10.2972C15.3549 10.2972 15.6403 10.2474 15.7943 10.1477C15.9574 10.0481 16.039 9.817 16.039 9.45455V8.20412C16.039 8.00477 15.9755 7.84167 15.8487 7.71482C15.7309 7.58796 15.5678 7.52453 15.3594 7.52453C15.1147 7.52453 14.938 7.60155 14.8293 7.75559C14.7296 7.90963 14.6798 8.05914 14.6798 8.20412V8.99243H13.2935V8.19053C13.2935 7.90963 13.3478 7.64233 13.4566 7.38862C13.5653 7.13491 13.7148 6.91744 13.9051 6.73622C14.0954 6.555 14.3174 6.41002 14.5711 6.30128C14.8248 6.19255 15.0966 6.13818 15.3866 6.13818C15.7671 6.13818 16.0797 6.2152 16.3244 6.36924C16.5781 6.51422 16.7684 6.66373 16.8952 6.81777C16.9859 6.9265 17.0629 7.03523 17.1263 7.14397C17.1988 7.2527 17.2577 7.38409 17.303 7.53813C17.3846 7.83714 17.4253 8.28114 17.4253 8.87011C17.4253 9.20537 17.4163 9.4772 17.3981 9.68561C17.3891 9.89402 17.3574 10.0662 17.303 10.2021C17.2396 10.3471 17.149 10.4694 17.0312 10.5691C16.9224 10.6687 16.7684 10.7775 16.569 10.8953C16.7865 11.0312 16.9496 11.0997 17.0583 11.2175C17.1761 11.3353 17.2622 11.4712 17.3166 11.6253C17.371 11.7884 17.4027 11.9832 17.4117 12.2097C17.4208 12.4272 17.4253 12.7081 17.4253 13.0524C17.4253 13.3695 17.4163 13.6323 17.3981 13.8407C17.3891 14.0491 17.371 14.2213 17.3438 14.3572C17.3166 14.5022 17.2803 14.6245 17.235 14.7242C17.1897 14.8238 17.1308 14.928 17.0583 15.0368C16.8862 15.2905 16.6642 15.5034 16.3924 15.6756C16.1296 15.8387 15.7807 15.9202 15.3458 15.9202C15.1283 15.9202 14.8973 15.884 14.6526 15.8115C14.408 15.739 14.186 15.6212 13.9866 15.4581C13.7873 15.295 13.6197 15.0821 13.4837 14.8193C13.3569 14.5565 13.2935 14.2349 13.2935 13.8543V13.066H14.6798V13.7863C14.6798 14.0038 14.7387 14.185 14.8565 14.33C14.9834 14.4659 15.151 14.5339 15.3594 14.5339C15.5678 14.5339 15.7309 14.4659 15.8487 14.33C15.9755 14.185 16.039 13.9947 16.039 13.7591V12.3728C16.039 11.9922 15.9665 11.743 15.8215 11.6253C15.74 11.5528 15.6267 11.5075 15.4817 11.4893C15.3458 11.4712 15.1646 11.4622 14.938 11.4622V10.2972Z" fill="#3073F2"/>
<path d="M8.41553 15.8387V14.5339L10.9164 9.87589C11.0432 9.6403 11.1157 9.43643 11.1339 9.26427C11.152 9.08305 11.161 8.86105 11.161 8.59828C11.161 8.48048 11.1565 8.35816 11.1475 8.2313C11.1475 8.09538 11.1248 7.97759 11.0795 7.87792C11.0342 7.77825 10.9662 7.6967 10.8756 7.63327C10.785 7.56078 10.6536 7.52453 10.4815 7.52453C10.2731 7.52453 10.1054 7.58343 9.97857 7.70123C9.86077 7.81902 9.80188 7.99118 9.80188 8.21771V9.00603H8.41553V8.24489C8.41553 7.95494 8.46989 7.6831 8.57863 7.42939C8.68736 7.17568 8.83687 6.95368 9.02715 6.7634C9.20837 6.57312 9.42584 6.42361 9.67955 6.31488C9.93326 6.19708 10.2051 6.13818 10.4951 6.13818C10.8575 6.13818 11.1656 6.20614 11.4193 6.34206C11.6821 6.46891 11.8995 6.64561 12.0717 6.87213C12.2348 7.09866 12.3526 7.3569 12.4251 7.64686C12.5066 7.93681 12.5474 8.24489 12.5474 8.57109C12.5474 8.80668 12.5429 9.00603 12.5338 9.16913C12.5247 9.32316 12.5066 9.47267 12.4794 9.61765C12.4523 9.76263 12.4069 9.90761 12.3435 10.0526C12.2801 10.1976 12.194 10.3743 12.0853 10.5827L10.0465 14.4523H12.5474V15.8387H8.41553Z" fill="#3073F2"/>
<path d="M5.96057 15.8387V7.68763L4.57422 8.707V7.2391L5.96057 6.21973H7.34692V15.8387H5.96057Z" fill="#3073F2"/>
</g>
</g>
<defs>
<filter id="filter0_i_101_13" x="1" y="1" width="20" height="20" filterUnits="userSpaceOnUse" color-interpolation-filters="sRGB">
<feFlood flood-opacity="0" result="BackgroundImageFix"/>
<feBlend mode="normal" in="SourceGraphic" in2="BackgroundImageFix" result="shape"/>
<feColorMatrix in="SourceAlpha" type="matrix" values="0 0 0 0 0 0 0 0 0 0 0 0 0 0 0 0 0 0 127 0" result="hardAlpha"/>
<feOffset/>
<feGaussianBlur stdDeviation="2"/>
<feComposite in2="hardAlpha" operator="arithmetic" k2="-1" k3="1"/>
<feColorMatrix type="matrix" values="0 0 0 0 0.866667 0 0 0 0 0.886275 0 0 0 0 0.913725 0 0 0 1 0"/>
<feBlend mode="normal" in2="shape" result="effect1_innerShadow_101_13"/>
</filter>
</defs>
</svg>
