<svg width="22" height="22" viewBox="0 0 22 22" fill="none" xmlns="http://www.w3.org/2000/svg">
<g filter="url(#filter0_i_101_3)">
<path d="M17 1H5C2.79086 1 1 2.79086 1 5V17C1 19.2091 2.79086 21 5 21H17C19.2091 21 21 19.2091 21 17V5C21 2.79086 19.2091 1 17 1Z" fill="white"/>
<path d="M6.86984 15.8937V15.1317H6.84251C6.6603 15.3843 6.47353 15.6366 6.2822 15.7719C6.09999 15.9073 5.84034 15.9749 5.50325 15.9749C5.33926 15.9749 5.17071 15.9479 4.99761 15.8937C4.83362 15.8486 4.67418 15.7584 4.5193 15.6231C4.36442 15.4968 4.23688 15.258 4.13666 15.0234C4.04555 14.7798 4 14.4685 4 14.0896C4 13.7017 4.03189 13.305 4.09566 13.0163C4.15944 12.7185 4.27787 12.4704 4.45097 12.2719C4.61497 12.0825 4.83818 11.9426 5.1206 11.8524C5.40303 11.7532 5.7629 11.7035 6.20021 11.7035C6.24576 11.7035 6.29587 11.7035 6.35053 11.7035C6.4052 11.7035 6.45531 11.7081 6.50086 11.7171C6.54641 11.7261 6.60108 11.7306 6.66485 11.7306C6.72862 11.7306 6.79695 11.7351 6.86984 11.7441V11.0269C6.86984 10.7923 6.81973 10.5983 6.71951 10.4449C6.6193 10.2916 6.43709 10.2149 6.17288 10.2149C5.99067 10.2149 5.82212 10.2735 5.66724 10.3908C5.52147 10.5081 5.42581 10.6795 5.38026 10.9051H4.02733C4.06377 10.2916 4.27332 9.79534 4.65596 9.41641C4.83818 9.23596 5.05683 9.09612 5.31193 8.99687C5.56702 8.88861 5.85401 8.83447 6.17288 8.83447C6.46442 8.83447 6.73774 8.87958 6.99283 8.96981C7.24793 9.06003 7.47114 9.19536 7.66246 9.37581C7.84467 9.55625 7.99044 9.78181 8.09977 10.0525C8.2091 10.3231 8.26376 10.6389 8.26376 10.9998V15.8937H6.86984ZM6.86984 12.8268C6.71496 12.7997 6.58741 12.7862 6.48719 12.7862C6.18654 12.7862 5.92689 12.8584 5.70824 13.0027C5.49869 13.1381 5.39392 13.449 5.39392 13.8189C5.39392 14.0806 5.4577 14.2926 5.58524 14.455C5.71279 14.6174 5.89045 14.6986 6.11821 14.6986C6.35509 14.6986 6.5373 14.6219 6.66485 14.4685C6.80151 14.3152 6.86984 14.0986 6.86984 13.8189V12.8268Z" fill="#3073F2"/>
<path d="M8.95264 15.894V6.0249H10.3466V9.59677H10.3739C10.5288 9.37121 10.711 9.19979 10.9205 9.0825C11.1392 8.95619 11.3852 8.89304 11.6585 8.89304C11.9956 8.89304 12.2552 8.95168 12.4374 9.06897C12.6288 9.18626 12.7836 9.33512 12.9021 9.51557C12.9932 9.65992 13.0524 9.84939 13.0797 10.084C13.1071 10.3185 13.1207 10.6839 13.1207 11.1802V13.7921C13.1207 14.171 13.1025 14.4733 13.0661 14.6988C13.0296 14.9244 12.9704 15.1722 12.8884 15.3256C12.6515 15.7586 12.2461 15.9752 11.6722 15.9752C11.3259 15.9752 11.0617 15.9075 10.8795 15.7722C10.6973 15.6368 10.5197 15.4699 10.3466 15.2714V15.894H8.95264ZM11.7268 11.0854C11.7268 10.8689 11.6767 10.6794 11.5765 10.517C11.4854 10.3546 11.3077 10.2734 11.0435 10.2734C10.8431 10.2734 10.6745 10.3456 10.5379 10.49C10.4103 10.6253 10.3466 10.8012 10.3466 11.0178V13.6838C10.3466 13.9365 10.4103 14.144 10.5379 14.3064C10.6654 14.4597 10.834 14.5364 11.0435 14.5364C11.2804 14.5364 11.4535 14.4507 11.5628 14.2793C11.6722 14.1079 11.7268 13.8823 11.7268 13.6026V11.0854Z" fill="#3073F2"/>
<path d="M15.2396 13.9178C15.2396 14.1344 15.2988 14.3013 15.4173 14.4186C15.5448 14.5359 15.7134 14.5945 15.9229 14.5945C16.1871 14.5945 16.3602 14.5178 16.4422 14.3644C16.5333 14.2111 16.588 14.0577 16.6062 13.9043H18.0001C18.0001 14.5088 17.8134 14.996 17.4398 15.3659C17.2576 15.5554 17.039 15.7042 16.7839 15.8125C16.5288 15.9208 16.2418 15.9749 15.9229 15.9749C15.4856 15.9749 15.1121 15.8847 14.8023 15.7042C14.5017 15.5238 14.2693 15.2847 14.1054 14.987C14.0051 14.8065 13.9368 14.599 13.9004 14.3644C13.8639 14.1299 13.8457 13.8727 13.8457 13.593V11.0996C13.8457 10.82 13.8639 10.5628 13.9004 10.3282C13.9368 10.0937 14.0051 9.88615 14.1054 9.70571C14.2693 9.40797 14.5017 9.16888 14.8023 8.98844C15.1121 8.808 15.4856 8.71777 15.9229 8.71777C16.2418 8.71777 16.5288 8.77191 16.7839 8.88017C17.0481 8.98844 17.2713 9.13731 17.4535 9.32677C17.8179 9.73277 18.0001 10.2606 18.0001 10.9102H16.6062C16.6062 10.6305 16.5424 10.4275 16.4149 10.3012C16.2965 10.1658 16.1325 10.0982 15.9229 10.0982C15.7134 10.0982 15.5448 10.1658 15.4173 10.3012C15.2988 10.4275 15.2396 10.6215 15.2396 10.8831V13.9178Z" fill="#3073F2"/>
</g>
<defs>
<filter id="filter0_i_101_3" x="1" y="1" width="20" height="20" filterUnits="userSpaceOnUse" color-interpolation-filters="sRGB">
<feFlood flood-opacity="0" result="BackgroundImageFix"/>
<feBlend mode="normal" in="SourceGraphic" in2="BackgroundImageFix" result="shape"/>
<feColorMatrix in="SourceAlpha" type="matrix" values="0 0 0 0 0 0 0 0 0 0 0 0 0 0 0 0 0 0 127 0" result="hardAlpha"/>
<feOffset/>
<feGaussianBlur stdDeviation="2"/>
<feComposite in2="hardAlpha" operator="arithmetic" k2="-1" k3="1"/>
<feColorMatrix type="matrix" values="0 0 0 0 0.866667 0 0 0 0 0.886275 0 0 0 0 0.913725 0 0 0 1 0"/>
<feBlend mode="normal" in2="shape" result="effect1_innerShadow_101_3"/>
</filter>
</defs>
</svg>
