<svg width="29" height="29" viewBox="0 0 29 29" fill="none" xmlns="http://www.w3.org/2000/svg">
<path d="M26.6365 10.9663H26.6257V18.9653H26.6267L26.6267 23.0327C26.6266 25.2046 24.866 26.9653 22.6941 26.9653H18.6267V26.9624H14.8289C16.4738 26.9624 17.8737 25.9187 18.405 24.4575C17.8671 25.9069 16.4721 26.9399 14.8357 26.9399H10.6414V26.9272H6.84448C6.73566 26.9359 6.62544 26.9419 6.5144 26.9419H2.63745L2.63745 20.9712C2.63749 19.8502 3.54673 18.9419 4.66772 18.9419H10.6375V22.8188C10.6374 23.0983 10.6104 23.3714 10.5574 23.6353C10.6123 23.3668 10.6413 23.0888 10.6414 22.8042V12.9692C10.6417 11.8486 11.5509 10.94 12.6716 10.9399H18.6365V4.93213C18.6368 3.8115 19.5461 2.90305 20.6667 2.90283H26.6365V10.9663Z" fill="#F6BFB2"/>
<path d="M18.6424 23.1347C18.6424 25.2364 16.9384 26.9401 14.8367 26.9403H10.6414L10.6414 12.9696C10.6417 11.8488 11.5508 10.9403 12.6717 10.9403L18.6424 10.9403V23.1347ZM10.6404 26.9276H6.5174C8.79443 26.9276 10.6404 25.0816 10.6404 22.8046L10.6404 26.9276Z" fill="#80AAFF"/>
<path d="M26.627 23.0321C26.627 25.204 24.8664 26.9647 22.6944 26.9647H18.627V26.9618H14.8292C16.8524 26.9618 18.5061 25.3833 18.627 23.3905V18.9676H18.626V10.9666H18.6368V4.93246C18.637 3.81166 19.5462 2.90317 20.6671 2.90317L26.6378 2.90317V10.9666H26.627V23.0321Z" fill="#C7DAFF"/>
<path d="M2.63953 20.9708C2.63953 19.8498 3.54829 18.941 4.66931 18.941H10.6398V22.8183C10.6398 25.0954 8.79388 26.9413 6.51681 26.9413H2.63953L2.63953 20.9708Z" fill="#1A67FF"/>
</svg>
